<?xml version="1.0" encoding="utf-8"?>
<!-- Generator: Adobe Illustrator 16.0.0, SVG Export Plug-In . SVG Version: 6.00 Build 0)  -->
<!DOCTYPE svg PUBLIC "-//W3C//DTD SVG 1.1//EN" "http://www.w3.org/Graphics/SVG/1.1/DTD/svg11.dtd">
<svg version="1.1" id="Layer_1" xmlns="http://www.w3.org/2000/svg" xmlns:xlink="http://www.w3.org/1999/xlink" x="0px" y="0px"
	 width="1000px" height="1000px" viewBox="0 0 1000 1000" enable-background="new 0 0 1000 1000" xml:space="preserve">
<g>
	<g>
		<path fill="#BDBDBD" d="M-420.317,836.431h42.737v163.008h-243.515l-102.376-190.836h-23.854v190.836h-272.34V836.431h43.733
			V447.442h-43.733V285.54h272.34v344.153h23.854l123.249-182.886h211.711v163.006h-42.739l-84.487,94.426L-420.317,836.431z"/>
	</g>
</g>
<linearGradient id="SVGID_1_" gradientUnits="userSpaceOnUse" x1="-6921.0532" y1="1799.9043" x2="-7154.2974" y2="2579.4316">
	<stop  offset="0" style="stop-color:#191A28"/>
	<stop  offset="0.9946" style="stop-color:#0F0D1A"/>
</linearGradient>
<rect x="-7055.552" y="1775.061" fill="url(#SVGID_1_)" width="260.417" height="78.361"/>
<circle fill="#E1F25C" cx="-6345" cy="2260.854" r="50.289"/>
<circle fill="#E1F25C" cx="-6344.724" cy="2476.722" r="50.29"/>
<g>
	<linearGradient id="SVGID_2_" gradientUnits="userSpaceOnUse" x1="-6636.2427" y1="1885.1221" x2="-6869.4863" y2="2664.6472">
		<stop  offset="0" style="stop-color:#191A28"/>
		<stop  offset="0.9946" style="stop-color:#0F0D1A"/>
	</linearGradient>
	<path fill="url(#SVGID_2_)" d="M-6485.023,2477.401h40.66v155.082h-231.676l-97.399-181.559h-22.695v181.559h-259.1v-155.082
		h41.607v-425.528h-41.607v-155.082h259.1v383.923h22.695l117.257-173.994h201.417v155.081h-40.662l-80.379,89.834
		L-6485.023,2477.401z"/>
</g>
<rect x="-1019.666" y="91.709" fill="#BDBDBD" width="272.39" height="80.609"/>
<circle fill="#BDBDBD" cx="-108.872" cy="527.418" r="80.604"/>
<path fill="#BDBDBD" d="M-26.956,918.931c0,45.245-36.676,81.92-81.921,81.92c-45.237,0-81.913-36.675-81.913-81.92
	c0-45.242,36.676-81.917,81.913-81.917C-63.632,837.014-26.956,873.688-26.956,918.931z"/>
<path fill="none" d="M-1204,411.374"/>
<path fill="#BDBDBD" d="M-458.697,446.807"/>
<rect x="2.334" y="236.78" fill="#EC8753" width="240.111" height="49.28"/>
<path fill="#EC8753" d="M832.592,550.666c0,42.332-34.315,76.649-76.647,76.649c-42.333,0-76.643-34.317-76.643-76.649
	s34.31-76.652,76.643-76.652C798.276,474.014,832.592,508.334,832.592,550.666z"/>
<path fill="#EC8753" d="M833.84,922.954c0,43.023-34.875,77.896-77.897,77.896c-43.016,0-77.893-34.873-77.893-77.896
	c0-43.021,34.877-77.896,77.893-77.896C798.965,845.059,833.84,879.933,833.84,922.954z"/>
<path fill="#EC8753" d="M491.307,474.014"/>
<polygon fill="#EC8753" points="242.445,513.398 242.445,396.349 242.445,339.24 2.334,339.24 2.334,493.193 36.172,493.193 
	36.172,844.505 2.334,844.505 2.334,999.507 242.445,999.507 242.445,818.043 "/>
<polygon fill="#EC8753" points="580.614,844.505 506.786,718.805 572.154,629.017 605.223,629.017 605.223,474.014 432.136,474.014 
	336.778,629.853 318.32,629.853 318.32,844.668 336.778,844.668 415.987,999.507 613.681,999.507 613.681,844.505 "/>
<rect x="1020.334" y="238.793" fill="#BDBDBD" width="213.553" height="112.188"/>
<polygon fill="#BDBDBD" points="1233.847,709.562 1233.847,486.832 1233.847,439.747 1020.334,439.747 1020.334,566.678 
	1054.62,566.678 1054.62,871.642 1020.334,871.642 1020.334,999.438 1233.847,999.438 1233.847,849.824 "/>
<polygon fill="#BDBDBD" points="1540.411,736.075 1540.411,999.438 1714.616,999.438 1573.331,736.075 "/>
<polygon fill="#BDBDBD" points="1573.331,489.172 1743.422,236.78 1540.411,236.78 1540.411,489.172 "/>
<polygon fill="#BDBDBD" points="1969.701,461.737 1853.105,592.05 1984.79,774.479 2028.685,774.479 2028.685,461.737 "/>
<rect x="2171.465" y="96.71" fill="#BDBDBD" width="260.417" height="78.361"/>
<circle fill="#BDBDBD" cx="2882.016" cy="582.504" r="50.289"/>
<circle fill="#BDBDBD" cx="2882.292" cy="798.371" r="50.29"/>
<g>
	<path fill="#BDBDBD" d="M2741.992,799.051h40.66v155.082h-231.676l-97.398-181.559h-22.695v181.559h-259.1V799.051h41.607V373.522
		h-41.607V218.44h259.1v383.923h22.695l117.256-173.994h201.418V583.45h-40.662l-80.379,89.834L2741.992,799.051z"/>
</g>
<circle fill="#EC8753" cx="3580.655" cy="-35.187" r="203.741"/>
<circle fill="#61F6E1" cx="3580.655" cy="587.176" r="203.741"/>
<circle fill="#EB304B" cx="3580.655" cy="1209.538" r="203.741"/>
<circle fill="#160A17" cx="3580.655" cy="2454.263" r="203.741"/>
<circle fill="#373171" cx="3580.655" cy="1831.899" r="203.741"/>
<circle fill="#030BA6" cx="4380.655" cy="-35.187" r="203.741"/>
<circle fill="#020873" cx="4380.655" cy="587.176" r="203.741"/>
<circle fill="#030640" cx="4380.655" cy="1209.538" r="203.741"/>
<circle fill="#E1F25C" cx="3580.655" cy="-658.772" r="203.741"/>
<circle fill="#020426" cx="4380.655" cy="1831.899" r="203.741"/>
<circle fill="#00846E" cx="2331.607" cy="-527.78" r="265.526"/>
</svg>
